/* XPM */
static char * adanaxis32x32_xpm[] = {
"32 32 687 2",
"  	c None",
". 	c #C2C5D9",
"+ 	c #ABABC7",
"@ 	c #9492B1",
"# 	c #9894B1",
"$ 	c #A09EBB",
"% 	c #ACADC9",
"& 	c #A2A2C0",
"* 	c #AFAFC5",
"= 	c #B0B2CE",
"- 	c #AEAFCA",
"; 	c #AAA7C2",
"> 	c #ADA6BB",
", 	c #9C96AE",
"' 	c #8D869C",
") 	c #998C9B",
"! 	c #9D909F",
"~ 	c #9F97A9",
"{ 	c #9D98AD",
"] 	c #9F9BB2",
"^ 	c #9A98B2",
"/ 	c #AAA9BE",
"( 	c #8D8AA4",
"_ 	c #B8B1C7",
": 	c #C5BFD1",
"< 	c #C0B6C8",
"[ 	c #BBABB7",
"} 	c #BDAAB2",
"| 	c #B2A2AB",
"1 	c #867F8F",
"2 	c #716D7F",
"3 	c #958B97",
"4 	c #ADA0A9",
"5 	c #A296A0",
"6 	c #968B99",
"7 	c #89869A",
"8 	c #838199",
"9 	c #7E7B93",
"0 	c #7D7A91",
"a 	c #B3ACC4",
"b 	c #B0A3B9",
"c 	c #B7A4B0",
"d 	c #BEACB4",
"e 	c #AC999F",
"f 	c #B49D9D",
"g 	c #B09998",
"h 	c #9E8B8D",
"i 	c #817880",
"j 	c #7B7781",
"k 	c #767482",
"l 	c #908993",
"m 	c #7D7681",
"n 	c #635F6E",
"o 	c #47485D",
"p 	c #52536B",
"q 	c #4F4F67",
"r 	c #59586F",
"s 	c #6F6E83",
"t 	c #828192",
"u 	c #AEAAC5",
"v 	c #B5A8BC",
"w 	c #AD9EAD",
"x 	c #C2AEB3",
"y 	c #B4A3A9",
"z 	c #94868B",
"A 	c #877B7F",
"B 	c #7D7377",
"C 	c #726C72",
"D 	c #5F5E66",
"E 	c #737078",
"F 	c #8B8692",
"G 	c #7B737A",
"H 	c #726971",
"I 	c #4E4C5F",
"J 	c #4B4C61",
"K 	c #53546A",
"L 	c #4F4F66",
"M 	c #46475F",
"N 	c #737289",
"O 	c #79788F",
"P 	c #767888",
"Q 	c #B9B4CA",
"R 	c #B7AABE",
"S 	c #A699A8",
"T 	c #9A909D",
"U 	c #7D7783",
"V 	c #65626E",
"W 	c #5A5964",
"X 	c #595862",
"Y 	c #585863",
"Z 	c #797884",
"` 	c #85838F",
" .	c #878591",
"..	c #8F8A97",
"+.	c #847E89",
"@.	c #64606E",
"#.	c #3E3F51",
"$.	c #48485B",
"%.	c #4B4B60",
"&.	c #494960",
"*.	c #737389",
"=.	c #9795AA",
"-.	c #68697F",
";.	c #858692",
">.	c #AEA6BD",
",.	c #9A90A5",
"'.	c #7A7487",
").	c #767283",
"!.	c #716F7D",
"~.	c #7B7A8B",
"{.	c #717082",
"].	c #7A798B",
"^.	c #757585",
"/.	c #878694",
"(.	c #93919B",
"_.	c #8E8B96",
":.	c #888593",
"<.	c #575665",
"[.	c #3C3D4D",
"}.	c #3B3C4E",
"|.	c #4B4C5E",
"1.	c #48485C",
"2.	c #56576A",
"3.	c #68687C",
"4.	c #515268",
"5.	c #7C7B90",
"6.	c #686880",
"7.	c #676877",
"8.	c #9495B6",
"9.	c #7F7D98",
"0.	c #747188",
"a.	c #88869C",
"b.	c #9290A5",
"c.	c #9A98AB",
"d.	c #9291A2",
"e.	c #A7A7B2",
"f.	c #62656F",
"g.	c #898A94",
"h.	c #B2B1BA",
"i.	c #908F97",
"j.	c #9A98A0",
"k.	c #84848E",
"l.	c #646576",
"m.	c #7C7D8D",
"n.	c #707081",
"o.	c #8B8A9A",
"p.	c #91909E",
"q.	c #9392A0",
"r.	c #B8B5C5",
"s.	c #646478",
"t.	c #55576C",
"u.	c #55566B",
"v.	c #6C6E75",
"w.	c #9597B9",
"x.	c #7E7DA0",
"y.	c #7B7995",
"z.	c #7A7992",
"A.	c #9190A3",
"B.	c #ACABBA",
"C.	c #9090A0",
"D.	c #8D8D9C",
"E.	c #9E9DAD",
"F.	c #898A95",
"G.	c #9999A4",
"H.	c #CDCCD3",
"I.	c #A8A7B0",
"J.	c #B6B4BE",
"K.	c #777784",
"L.	c #717181",
"M.	c #A8A9B2",
"N.	c #8A8999",
"O.	c #8A8A97",
"P.	c #5C5C6C",
"Q.	c #494A5B",
"R.	c #838194",
"S.	c #89889C",
"T.	c #7F7E93",
"U.	c #66667B",
"V.	c #5B5C72",
"W.	c #5F616F",
"X.	c #A3A3C0",
"Y.	c #9392AE",
"Z.	c #666580",
"`.	c #5E5E77",
" +	c #747388",
".+	c #9B9AA9",
"++	c #BBBAC5",
"@+	c #A5A4B1",
"#+	c #A8A7B3",
"$+	c #ACACB7",
"%+	c #ABABB3",
"&+	c #A2A1A8",
"*+	c #BBBAC3",
"=+	c #B1B0BB",
"-+	c #9696A3",
";+	c #7A7A8A",
">+	c #838390",
",+	c #616271",
"'+	c #353647",
")+	c #373749",
"!+	c #414254",
"~+	c #47485A",
"{+	c #4D4F60",
"]+	c #5C5D6F",
"^+	c #87869A",
"/+	c #636478",
"(+	c #555768",
"_+	c #71747B",
":+	c #9292B4",
"<+	c #7B7997",
"[+	c #6D6C84",
"}+	c #54546B",
"|+	c #68687F",
"1+	c #606075",
"2+	c #6F7080",
"3+	c #8D8D9B",
"4+	c #908E9C",
"5+	c #9695A2",
"6+	c #C0BEC7",
"7+	c #A6A5AE",
"8+	c #B4B2BD",
"9+	c #9291A0",
"0+	c #898995",
"a+	c #838493",
"b+	c #858596",
"c+	c #70707E",
"d+	c #363748",
"e+	c #414253",
"f+	c #38394B",
"g+	c #3F4052",
"h+	c #565667",
"i+	c #565668",
"j+	c #6E6D81",
"k+	c #8F8DA2",
"l+	c #56596A",
"m+	c #74777E",
"n+	c #BBBBD1",
"o+	c #8685A7",
"p+	c #87879F",
"q+	c #78788D",
"r+	c #5D5E74",
"s+	c #77768C",
"t+	c #69697D",
"u+	c #737382",
"v+	c #A8A6AD",
"w+	c #8C8B95",
"x+	c #93919E",
"y+	c #D1CED6",
"z+	c #E1DEE4",
"A+	c #9E9BA6",
"B+	c #6B6B7B",
"C+	c #474856",
"D+	c #555562",
"E+	c #78787F",
"F+	c #6E6E7E",
"G+	c #6E6F7F",
"H+	c #38394A",
"I+	c #393A4C",
"J+	c #48495A",
"K+	c #555667",
"L+	c #8E8DA2",
"M+	c #78788B",
"N+	c #4C505B",
"O+	c #A6A6C4",
"P+	c #7D7C9E",
"Q+	c #82829B",
"R+	c #A3A3B5",
"S+	c #88889C",
"T+	c #6E6E80",
"U+	c #4D4E61",
"V+	c #63626F",
"W+	c #888388",
"X+	c #89848C",
"Y+	c #908B94",
"Z+	c #B0ACB6",
"`+	c #A09EA4",
" @	c #64646A",
".@	c #575967",
"+@	c #525264",
"@@	c #4C4C56",
"#@	c #54555B",
"$@	c #464757",
"%@	c #5E5F6F",
"&@	c #454656",
"*@	c #484959",
"=@	c #323345",
"-@	c #404152",
";@	c #404153",
">@	c #4A4B5D",
",@	c #69697E",
"'@	c #606273",
")@	c #535664",
"!@	c #898C8F",
"~@	c #7D7DA8",
"{@	c #6E6D8F",
"]@	c #8A89A3",
"^@	c #A4A3B4",
"/@	c #535469",
"(@	c #57586D",
"_@	c #7C7B8D",
":@	c #878187",
"<@	c #857B77",
"[@	c #928784",
"}@	c #857F80",
"|@	c #5F5E5E",
"1@	c #606066",
"2@	c #525461",
"3@	c #404150",
"4@	c #3F3F48",
"5@	c #3C3D45",
"6@	c #2B2C3C",
"7@	c #2C2C3C",
"8@	c #373747",
"9@	c #454657",
"0@	c #3C3D4F",
"a@	c #3B3B4E",
"b@	c #37384B",
"c@	c #3E3F52",
"d@	c #434558",
"e@	c #45475A",
"f@	c #535667",
"g@	c #7E7DA8",
"h@	c #6C6C8F",
"i@	c #686782",
"j@	c #75758B",
"k@	c #828296",
"l@	c #66677C",
"m@	c #737388",
"n@	c #A1A0B3",
"o@	c #8E8994",
"p@	c #8C817E",
"q@	c #988983",
"r@	c #9A9494",
"s@	c #797879",
"t@	c #53555C",
"u@	c #58596A",
"v@	c #3D3F4E",
"w@	c #353644",
"x@	c #30313F",
"y@	c #2E2E3E",
"z@	c #323242",
"A@	c #3A3A4A",
"B@	c #474858",
"C@	c #4D4E5F",
"D@	c #46475A",
"E@	c #404155",
"F@	c #343648",
"G@	c #56576C",
"H@	c #444659",
"I@	c #474A5C",
"J@	c #787B81",
"K@	c #7F80A8",
"L@	c #585779",
"M@	c #5B5B77",
"N@	c #66657D",
"O@	c #56566D",
"P@	c #3B3C50",
"Q@	c #404251",
"R@	c #A29CA4",
"S@	c #AA9F9F",
"T@	c #A6A0A2",
"U@	c #88878A",
"V@	c #5A5B68",
"W@	c #5F6070",
"X@	c #3E404F",
"Y@	c #393A4A",
"Z@	c #2E2E3F",
"`@	c #272738",
" #	c #2A2A3B",
".#	c #292A3B",
"+#	c #383849",
"@#	c #646475",
"##	c #666779",
"$#	c #5B5C70",
"%#	c #36374B",
"&#	c #3E4154",
"*#	c #474A5B",
"=#	c #7E8185",
"-#	c #8586AD",
";#	c #636385",
">#	c #656581",
",#	c #6F6E88",
"'#	c #76768D",
")#	c #A9A7B7",
"!#	c #9493A4",
"~#	c #707083",
"{#	c #7E7D8C",
"]#	c #B1ABB3",
"^#	c #CECBCE",
"/#	c #ABA9B1",
"(#	c #757586",
"_#	c #686A7A",
":#	c #525363",
"<#	c #444554",
"[#	c #3E3F4F",
"}#	c #343545",
"|#	c #323344",
"1#	c #333444",
"2#	c #3A3B4B",
"3#	c #616272",
"4#	c #565768",
"5#	c #343649",
"6#	c #323448",
"7#	c #434559",
"8#	c #4E5061",
"9#	c #929497",
"0#	c #9FA0BF",
"a#	c #9999B6",
"b#	c #A6A6C0",
"c#	c #62627B",
"d#	c #57586E",
"e#	c #8B8B9B",
"f#	c #B1AFC2",
"g#	c #85849B",
"h#	c #4E4F62",
"i#	c #494959",
"j#	c #797985",
"k#	c #A6A6B1",
"l#	c #DADAE2",
"m#	c #F2F1F4",
"n#	c #F0F0F3",
"o#	c #EFEFF2",
"p#	c #B9B8C3",
"q#	c #7A7B8B",
"r#	c #454756",
"s#	c #4E505E",
"t#	c #5E606E",
"u#	c #5A5C69",
"v#	c #454654",
"w#	c #3A3C4B",
"x#	c #696A7A",
"y#	c #3C3E50",
"z#	c #383A4D",
"A#	c #424457",
"B#	c #4C4E5F",
"C#	c #AEAFB1",
"D#	c #9D9DB9",
"E#	c #BAB9D0",
"F#	c #6F6F86",
"G#	c #76758B",
"H#	c #9797A7",
"I#	c #878698",
"J#	c #676779",
"K#	c #353748",
"L#	c #595A6C",
"M#	c #767588",
"N#	c #7C7C8B",
"O#	c #80808E",
"P#	c #D1D0D8",
"Q#	c #EEEDF3",
"R#	c #FEFEFE",
"S#	c #F8F8F9",
"T#	c #AEAEBD",
"U#	c #787889",
"V#	c #868795",
"W#	c #757683",
"X#	c #3F414F",
"Y#	c #666778",
"Z#	c #606374",
"`#	c #34374A",
" $	c #4C4F5C",
".$	c #AAAAC5",
"+$	c #D2D1E0",
"@$	c #78788F",
"#$	c #727284",
"$$	c #797989",
"%$	c #94949F",
"&$	c #8C8C98",
"*$	c #424351",
"=$	c #585967",
"-$	c #777687",
";$	c #B6B4C2",
">$	c #9697A2",
",$	c #A5A6AC",
"'$	c #F2F2F5",
")$	c #F6F6F8",
"!$	c #D6D6E0",
"~$	c #88889B",
"{$	c #50535F",
"]$	c #787887",
"^$	c #8E8E9C",
"/$	c #9998AB",
"($	c #737485",
"_$	c #606272",
":$	c #7A7A8F",
"<$	c #8A8CA1",
"[$	c #4A4C5F",
"}$	c #424456",
"|$	c #636770",
"1$	c #9596B4",
"2$	c #B6B6CB",
"3$	c #A0A0B3",
"4$	c #7C7D91",
"5$	c #818194",
"6$	c #8E8E9D",
"7$	c #BAB9C4",
"8$	c #9E9EAA",
"9$	c #5E5F6E",
"0$	c #8E8D9D",
"a$	c #D0CED9",
"b$	c #E4E3E8",
"c$	c #E6E6ED",
"d$	c #ACADBA",
"e$	c #9294A3",
"f$	c #858694",
"g$	c #51545F",
"h$	c #6F707D",
"i$	c #737481",
"j$	c #C4C3D4",
"k$	c #B2B2C1",
"l$	c #A5A5B9",
"m$	c #9C9CB3",
"n$	c #9899B2",
"o$	c #65677C",
"p$	c #444852",
"q$	c #9294B6",
"r$	c #A6A6C2",
"s$	c #BFBFD2",
"t$	c #AAAABF",
"u$	c #8C8BA2",
"v$	c #9291A4",
"w$	c #8A8A9B",
"x$	c #CBCAD6",
"y$	c #A09EB2",
"z$	c #B9B6CA",
"A$	c #C9C7D6",
"B$	c #D5D3E0",
"C$	c #BEBCCD",
"D$	c #A5A5B6",
"E$	c #9596A5",
"F$	c #7E808F",
"G$	c #6B6C79",
"H$	c #5C5E69",
"I$	c #5D5F6A",
"J$	c #696A78",
"K$	c #8E8EA1",
"L$	c #6D6D7F",
"M$	c #818295",
"N$	c #B1B1C8",
"O$	c #828297",
"P$	c #6A6B7E",
"Q$	c #5D6068",
"R$	c #ACAECA",
"S$	c #B3B4CC",
"T$	c #B7B7CD",
"U$	c #838398",
"V$	c #A7A6B9",
"W$	c #9896AB",
"X$	c #DAD8E4",
"Y$	c #B8B6CB",
"Z$	c #B5B3C8",
"`$	c #8C8C9D",
" %	c #B7B5C8",
".%	c #B7B5C9",
"+%	c #A6A5B8",
"@%	c #9898A9",
"#%	c #9494A8",
"$%	c #767784",
"%%	c #757583",
"&%	c #7B7C8A",
"*%	c #636573",
"=%	c #383B49",
"-%	c #5B5D6E",
";%	c #807F96",
">%	c #4E5161",
",%	c #4A4D5A",
"'%	c #5D6064",
")%	c #9192B2",
"!%	c #9393AE",
"~%	c #9695AD",
"{%	c #BEBCCF",
"]%	c #A2A1B5",
"^%	c #A8A6B8",
"/%	c #C2C0D3",
"(%	c #BDBACF",
"_%	c #A2A1B4",
":%	c #C0BED2",
"<%	c #B1B0C3",
"[%	c #9A99AC",
"}%	c #9596A8",
"|%	c #9B9BAA",
"1%	c #A09FB2",
"2%	c #5A5C6E",
"3%	c #7A7A90",
"4%	c #7F7F96",
"5%	c #5D5E71",
"6%	c #4C4F60",
"7%	c #656871",
"8%	c #B0B1C9",
"9%	c #8F90AD",
"0%	c #84849F",
"a%	c #9C9BB1",
"b%	c #9C9BB2",
"c%	c #7C7C91",
"d%	c #A1A0B5",
"e%	c #BFBED2",
"f%	c #CFCEDF",
"g%	c #D5D5E5",
"h%	c #A5A6BA",
"i%	c #C3C3D5",
"j%	c #D2D1E3",
"k%	c #BDBED1",
"l%	c #ACACC1",
"m%	c #8E8FA3",
"n%	c #89899F",
"o%	c #9291A9",
"p%	c #9796B0",
"q%	c #9290AB",
"r%	c #8B8AA6",
"s%	c #6E6E87",
"t%	c #96969E",
"u%	c #BABBCF",
"v%	c #A8A9C5",
"w%	c #A0A0BC",
"x%	c #C3C3D9",
"y%	c #C1C1D7",
"z%	c #D6D5E7",
"A%	c #D4D3E5",
"B%	c #CCCBDD",
"C%	c #D1D0E2",
"D%	c #E0DFEE",
"E%	c #DEDEEC",
"F%	c #DADAE9",
"G%	c #D8D8E8",
"H%	c #DADAEA",
"I%	c #BFC0D3",
"J%	c #AAABC2",
"K%	c #ACADC6",
"L%	c #8A88A4",
"M%	c #767590",
"N%	c #707082",
"O%	c #A2A3A8",
"P%	c #B5B5CB",
"Q%	c #A4A4C3",
"R%	c #BBBAD4",
"S%	c #CACBE0",
"T%	c #D0D0E3",
"U%	c #CFCFE2",
"V%	c #C8C7DB",
"W%	c #D7D6E8",
"X%	c #E0E0EE",
"Y%	c #DFDFED",
"Z%	c #DFDEED",
"`%	c #DDDDEB",
" &	c #D6D7E8",
".&	c #CCCCE1",
"+&	c #B4B4CD",
"@&	c #AEAEC9",
"#&	c #9A9BB7",
"$&	c #7A7995",
"%&	c #64647A",
"&&	c #868792",
"*&	c #9F9FBA",
"=&	c #9393B2",
"-&	c #B4B5D1",
";&	c #C4C4DC",
">&	c #C1C0D8",
",&	c #CFCFE3",
"'&	c #D1D2E5",
")&	c #CACADF",
"!&	c #C3C3DA",
"~&	c #BCBCD4",
"{&	c #B5B4CE",
"]&	c #A5A4C0",
"^&	c #9998B4",
"/&	c #7E7D97",
"(&	c #737386",
"_&	c #9694B1",
":&	c #ADADCA",
"<&	c #AAAAC9",
"[&	c #B3B3CE",
"}&	c #B9B9D3",
"|&	c #B7B6D0",
"1&	c #B2B1CC",
"2&	c #AAAAC6",
"3&	c #A2A1BF",
"4&	c #9493B2",
"5&	c #8987A3",
"6&	c #8887A0",
"7&	c #727185",
"8&	c #B1B1C9",
"9&	c #9898B7",
"0&	c #9494B5",
"a&	c #9190B2",
"b&	c #8D8CAC",
"c&	c #9E9EB5",
"d&	c #A9A9BA",
"                                                                ",
"                        . + @ # $ % & *                         ",
"                  = - ; > , ' ) ! ~ { ] ^ / (                   ",
"                _ : < [ } | 1 2 3 4 5 6 7 8 9 0                 ",
"            a b c d e f g h i j k l m n o p q r s t             ",
"          u v w x y z A B C D E F G H I J K L M N O P           ",
"        Q R S T U V W X Y Z `  ...+.@.#.$.o %.&.*.=.-.;.        ",
"        >.,.'.).!.~.{.].^./.(._.:.<.[.}.|.1.2.3.4.5.6.7.        ",
"      8.9.0.a.b.c.d.e.f.g.h.i.j.k.l.m.n.o.p.q.r.d.s.t.u.v.      ",
"    w.x.y.z.A.B.C.D.E.F.G.H.I.J.K.L.M.N.O.P.Q.R.S.T.U.V.W.      ",
"    X.Y.Z.`. +.+++@+#+$+%+&+*+=+-+;+>+,+'+)+!+~+{+]+^+/+(+_+    ",
"    :+<+[+}+|+1+2+3+4+5+6+7+8+9+0+a+b+c+d+e+f+g+h+i+j+k+l+m+    ",
"  n+o+p+q+r+s+t+u+v+w+x+y+z+A+B+C+D+E+F+G+e+H+I+J+K+|.L+M+N+    ",
"  O+P+Q+R+S+T+U+V+W+X+Y+Z+`+ @.@+@@@#@$@%@&@*@=@-@;@>@,@'@)@!@  ",
"  ~@{@]@^@t+/@(@_@:@<@[@}@|@1@2@3@4@5@6@7@8@9@0@a@b@c@d@e@f@!@  ",
"  g@h@i@j@k@l@m@n@o@p@q@r@s@t@u@v@w@x@y@z@A@B@C@D@E@F@G@H@I@J@  ",
"  K@L@M@N@O@o P@d+Q@R@S@T@U@V@W@X@Y@Z@`@ #.#+#@###$#%#d@&#*#=#  ",
"  -#;#>#,#'#)#!#~#h+{#]#^#/#(#_#:#<#[#.#}#|#1#2#3#4#5#6#7#8#9#  ",
"  0#a#b#c#d#e#f#g#h#i#j#k#l#m#n#o#p#q#r#s#t#u#v#w#x#y#z#A#B#C#  ",
"    D#E#F#G#H#I#J#K#L#M#N#O#P#Q#R#S#T#3#C+U#V#W#X#Y#Z#`#h# $    ",
"    .$+$@$#$$$%$&$*$=$-$;$>$,$'$)$!$~${$]$^$/$($_$:$<$[$}$|$    ",
"    1$2$3$4$5$6$7$8$9$0$a$b$m#c$d$e$f$g$h$i$j$k$l$m$n$o$r#p$    ",
"    q$r$s$t$u$v$w$x$y$z$A$B$C$D$E$F$G$H$I$J$K$L$M$N$O$P$Q$      ",
"      R$S$T$U$V$W$X$Y$Z$`$ %.%+%@%#%$%%%&%*%s#=%-%;%>%,%'%      ",
"        )%!%~%{%]%^%/%(%_%:%<%[%_%}%|%1%k@~#2%3%4%5%6%7%        ",
"        8%9%0%a%b%c%d%e%f%g%h%i%j%k%l%m%n%o%p%q%r%s%F+t%        ",
"          u%v%w%x%y%z%A%B%C%D%E%F%G%H%I%J%K%w%L%M%N%O%          ",
"            P%Q%R%S%T%U%V%W%X%Y%Z%`% &.&+&@&#&$&%&&&            ",
"                *&=&-&;&>&,&'&U%)&!&~&{&]&^&/&(&                ",
"                  _&:&:&<&[&}&|&1&2&3&4&5&6&7&                  ",
"                        s$8&9&0&a&b&c&d&                        ",
"                                                                "};
