/* XPM */
static char * adanaxis16x16_xpm[] = {
"16 16 193 2",
"  	c None",
". 	c #B6B8D0",
"+ 	c #9693B1",
"@ 	c #A6A6C2",
"# 	c #A8A8C2",
"$ 	c #BAB6CD",
"% 	c #B5AEC3",
"& 	c #AEA2B2",
"* 	c #878091",
"= 	c #A094A2",
"- 	c #9D95A6",
"; 	c #9492A9",
"> 	c #838098",
", 	c #AEAAC5",
"' 	c #B1A5BA",
") 	c #BBA8B0",
"! 	c #9F8E92",
"~ 	c #8F8184",
"{ 	c #746F78",
"] 	c #837E88",
"^ 	c #686270",
"/ 	c #4E4F65",
"( 	c #4F4F67",
"_ 	c #77768B",
": 	c #767888",
"< 	c #AEA5BA",
"[ 	c #8C8494",
"} 	c #74707E",
"| 	c #686675",
"1 	c #737380",
"2 	c #8B8994",
"3 	c #7C7986",
"4 	c #464656",
"5 	c #48495C",
"6 	c #54556A",
"7 	c #76758B",
"8 	c #6F7082",
"9 	c #8D8EB0",
"0 	c #7A7892",
"a 	c #9694A8",
"b 	c #9292A2",
"c 	c #8C8D99",
"d 	c #A8A8B1",
"e 	c #A2A0A9",
"f 	c #747482",
"g 	c #888896",
"h 	c #80808F",
"i 	c #868495",
"j 	c #807F92",
"k 	c #5B5C71",
"l 	c #666872",
"m 	c #9190AE",
"n 	c #61617A",
"o 	c #767589",
"p 	c #9797A4",
"q 	c #9E9EAA",
"r 	c #ADACB4",
"s 	c #ACABB7",
"t 	c #878795",
"u 	c #767685",
"v 	c #393A4B",
"w 	c #404153",
"x 	c #555668",
"y 	c #7A798D",
"z 	c #646773",
"A 	c #B0B0CA",
"B 	c #8382A0",
"C 	c #808094",
"D 	c #67677A",
"E 	c #82808A",
"F 	c #8E8B95",
"G 	c #C0BEC5",
"H 	c #71717C",
"I 	c #4E4F5C",
"J 	c #60606C",
"K 	c #545666",
"L 	c #3B3C4D",
"M 	c #47485A",
"N 	c #636377",
"O 	c #5E606F",
"P 	c #898C8F",
"Q 	c #7E7DA8",
"R 	c #737291",
"S 	c #818194",
"T 	c #616276",
"U 	c #8C8997",
"V 	c #8F837F",
"W 	c #7E7A7B",
"X 	c #575863",
"Y 	c #3C3D4A",
"Z 	c #313240",
"` 	c #343444",
" .	c #454657",
"..	c #3E3F52",
"+.	c #434458",
"@.	c #494B5E",
"#.	c #808488",
"$.	c #8283AA",
"%.	c #5F5E7E",
"&.	c #686880",
"*.	c #707082",
"=.	c #4F5061",
"-.	c #9F99A0",
";.	c #AAA7AB",
">.	c #666676",
",.	c #434454",
"'.	c #2F3040",
").	c #2E2F40",
"!.	c #424353",
"~.	c #5E5F71",
"{.	c #383A4D",
"].	c #46485A",
"^.	c #888A8E",
"/.	c #9FA0BF",
"(.	c #A6A5C0",
"_.	c #68687E",
":.	c #9696A7",
"<.	c #5C5C70",
"[.	c #646474",
"}.	c #9F9FAB",
"|.	c #E8E8EC",
"1.	c #E8E7EB",
"2.	c #747484",
"3.	c #5B5C6B",
"4.	c #666875",
"5.	c #525463",
"6.	c #424457",
"7.	c #4A4C5D",
"8.	c #AEAFB1",
"9.	c #B2B2C9",
"0.	c #828296",
"a.	c #878796",
"b.	c #8A8A96",
"c.	c #6F6F7E",
"d.	c #C0BFC9",
"e.	c #DCDCE0",
"f.	c #C2C3CD",
"g.	c #6C6D7B",
"h.	c #7A7A88",
"i.	c #A0A0B1",
"j.	c #87879B",
"k.	c #74768C",
"l.	c #4C4E5C",
"m.	c #A1A3C1",
"n.	c #B5B5CA",
"o.	c #9291A6",
"p.	c #B2B0C0",
"q.	c #B2AFC4",
"r.	c #B8B7C7",
"s.	c #B0AFC1",
"t.	c #9090A1",
"u.	c #6C6E7A",
"v.	c #696A78",
"w.	c #606272",
"x.	c #838498",
"y.	c #616374",
"z.	c #5D6066",
"A.	c #999AB6",
"B.	c #9D9CB3",
"C.	c #9898AC",
"D.	c #B8B6CA",
"E.	c #C2C0D2",
"F.	c #ADACC0",
"G.	c #B2B2C4",
"H.	c #9D9DB0",
"I.	c #838398",
"J.	c #7F7F96",
"K.	c #75758D",
"L.	c #6D6F7B",
"M.	c #BABBCF",
"N.	c #A8A8C4",
"O.	c #C2C2D9",
"P.	c #D2D2E4",
"Q.	c #CFCEE0",
"R.	c #DFDFED",
"S.	c #DCDBEA",
"T.	c #CFCFE2",
"U.	c #AEAEC8",
"V.	c #908FAB",
"W.	c #747488",
"X.	c #A2A3A8",
"Y.	c #9897B4",
"Z.	c #B4B5D0",
"`.	c #BBBBD4",
" +	c #C4C4DA",
".+	c #BABAD3",
"++	c #AAA9C5",
"@+	c #9492AE",
"#+	c #76768B",
"$+	c #B8B8CE",
"%+	c #9696B6",
"&+	c #8F8EAF",
"*+	c #A4A4B8",
"            . + @ #             ",
"        $ % & * = - ; >         ",
"    , ' ) ! ~ { ] ^ / ( _ :     ",
"    < [ } | 1 2 3 4 5 6 7 8     ",
"  9 0 a b c d e f g h i j k l   ",
"  m n o p q r s t u v w x y z   ",
"A B C D E F G H I J K L M N O P ",
"Q R S T U V W X Y Z `  ...+.@.#.",
"$.%.&.*.=.-.;.>.,.'.).!.~.{.].^.",
"/.(._.:.<.[.}.|.1.2.3.4.5.6.7.8.",
"  9.0.a.b.c.d.e.f.g.h.i.j.k.l.  ",
"  m.n.o.p.q.r.s.t.u.v.w.x.y.z.  ",
"    A.B.C.D.E.F.G.H.I.J.K.L.    ",
"    M.N.O.P.Q.R.S.T.U.V.W.X.    ",
"        Y.Z.`. +.+++@+#+        ",
"            $+%+&+*+            "};
